<svg width="24" height="24" viewBox="0 0 24 24" fill="none" xmlns="http://www.w3.org/2000/svg">
<path fill-rule="evenodd" clip-rule="evenodd" d="M8.48632 3.10547C8.48632 2.11376 9.28188 1.24994 10.303 1.24994H13.7939C14.815 1.24994 15.6106 2.11376 15.6106 3.10547V4.46602H20C20.4142 4.46602 20.75 4.80181 20.75 5.21602C20.75 5.63023 20.4142 5.96602 20 5.96602H3.99995C3.58574 5.96602 3.24995 5.63023 3.24995 5.21602C3.24995 4.80181 3.58574 4.46602 3.99995 4.46602H8.48632V3.10547ZM9.98632 4.46602H14.1106V3.10547C14.1106 2.89114 13.9364 2.74994 13.7939 2.74994H10.303C10.1604 2.74994 9.98632 2.89114 9.98632 3.10547V4.46602ZM5.39537 7.98594C5.80829 7.95328 6.16951 8.26155 6.20217 8.67448L7.17186 20.9358C7.17342 20.9555 7.1742 20.9752 7.1742 20.9949C7.1742 21.0828 7.2045 21.1329 7.24318 21.168C7.2884 21.209 7.37118 21.2499 7.49086 21.2499H16.3151C16.4348 21.2499 16.5176 21.209 16.5628 21.168C16.6015 21.1329 16.6318 21.0828 16.6318 20.9949C16.6318 20.9752 16.6326 20.9555 16.6341 20.9358L17.6038 8.67448C17.6365 8.26155 17.9977 7.95328 18.4106 7.98594C18.8235 8.0186 19.1318 8.37981 19.0991 8.79274L18.1315 21.028C18.1135 22.0931 17.231 22.7499 16.3151 22.7499H7.49086C6.57496 22.7499 5.69243 22.0931 5.67448 21.028L4.70683 8.79274C4.67418 8.37981 4.98245 8.0186 5.39537 7.98594Z" fill="#666666"/>
</svg>
