<svg width="24" height="24" viewBox="0 0 24 24" fill="none" xmlns="http://www.w3.org/2000/svg">
<path fill-rule="evenodd" clip-rule="evenodd" d="M18.0784 3.13217C17.5711 2.62261 16.8471 2.62261 16.3397 3.13217L16.3354 3.13657L16.3354 3.13655L13.9957 5.44806L16.4398 7.903C16.7321 8.19654 16.731 8.67141 16.4375 8.96366C16.1439 9.25591 15.6691 9.25486 15.3768 8.96132L12.9286 6.50228L4.13039 15.1945C3.8861 15.4404 3.85066 15.5603 3.85066 15.6683C3.85066 15.7158 3.84615 15.7632 3.83719 15.8099L2.80216 21.1969L8.13883 20.1625C8.37001 20.1012 8.55715 19.9883 8.82438 19.8106L20.7778 7.70421C20.7889 7.69301 20.8003 7.68217 20.812 7.67169C21.3868 7.15855 21.3817 6.45003 20.8801 5.94624L18.0784 3.13217ZM12.5728 4.74517C12.5023 4.78019 12.4362 4.827 12.3774 4.88559C12.3199 4.94274 12.2737 5.00689 12.2387 5.07529L3.07385 14.1298L3.07383 14.1298L3.06946 14.1342C2.72897 14.4762 2.37886 14.9355 2.35227 15.5885L1.26347 21.2555C1.25451 21.3021 1.25 21.3495 1.25 21.397C1.25 21.7066 1.35189 22.0413 1.58844 22.3086C1.83743 22.59 2.19556 22.75 2.60036 22.75C2.64826 22.75 2.69605 22.7454 2.74308 22.7363L8.44649 21.6308C8.45988 21.6282 8.47319 21.6252 8.48642 21.6219C9.01416 21.4894 9.4071 21.226 9.69648 21.032C9.70496 21.0263 9.71335 21.0207 9.72166 21.0151C9.7636 20.9871 9.80259 20.9548 9.83805 20.9189L21.8298 8.77376C23.0374 7.6783 23.0369 5.98653 21.9431 4.88793L19.1414 2.07386C18.0486 0.97618 16.3728 0.975382 15.2791 2.07146L12.5728 4.74517Z" fill="#666666"/>
</svg>
